<svg width="22" height="32" viewBox="0 0 22 32" fill="none" xmlns="http://www.w3.org/2000/svg">
<g clip-path="url('#clip0_2696_415')">
<path d="M6.27539 21.606H15.7247V26.3306H6.27539V21.606Z" fill="#E74040"></path>
<path d="M10.9997 3.65186C5.26833 3.65186 0.605469 8.31478 0.605469 14.0461V28.2201C0.605469 30.3042 2.30105 31.9998 4.3852 31.9998H17.6142C19.6984 31.9998 21.394 30.3042 21.394 28.2201V14.0461C21.394 8.31472 16.7312 3.65186 10.9997 3.65186ZM5.33013 12.1562H16.6693V14.0461H14.7795V15.936H12.8896V14.0461H5.33013V12.1562ZM17.6142 28.2201H4.3852V19.7157H17.6142V28.2201Z" fill="#E74040"></path>
<path d="M20.7042 1.83877L15.3411 0L14.5566 2.288C16.4519 2.86245 18.1545 3.88336 19.5422 5.22799L20.7042 1.83877Z" fill="#E74040"></path>
<path d="M7.44253 2.288L6.65804 0L1.29492 1.83877L2.45694 5.22799C3.8446 3.88342 5.54731 2.86245 7.44253 2.288Z" fill="#E74040"></path>
</g>
<defs>
<clipPath id="clip0_2696_415">
<rect width="20.7885" height="32" fill="white" transform="translate(0.605469)"></rect>
</clipPath>
</defs>
</svg>
